# xmcd CD database file
#
# Track frame offsets:
#	150
#	49856
#	67669
#	81831
#	89472
#	128211
#
# Disc length: 2322 seconds
#
# Revision: 3
# Processed by: cddbd v1.5.2PL0 Copyright (c) Steve Scherf et al.
# Submitted via: CDex 1.70beta2
#
DISCID=46091006
DTITLE=Son House - New York Central - Live in Oberlin Ohio
DYEAR=1965
DGENRE=Blues
TTITLE0=Intro - It's so hard
TTITLE1=Judgement Day
TTITLE2=New York Central
TTITLE3=A True Friend is hard to find
TTITLE4=Preachin Blues
TTITLE5=Change Your Mind
EXTD=YEAR: 1965
EXTT0=
EXTT1=
EXTT2=
EXTT3=
EXTT4=
EXTT5=
PLAYORDER=
